<svg xmlns="http://www.w3.org/2000/svg" viewBox="0 0 32 32" width="32" height="32">
  <defs>
    <linearGradient id="fg" x1="0%" y1="0%" x2="100%" y2="0%">
      <stop offset="0%" stop-color="#00D4FF"/>
      <stop offset="100%" stop-color="#8B5CF6"/>
    </linearGradient>
    <filter id="g" x="-25%" y="-25%" width="150%" height="150%">
      <feGaussianBlur in="SourceGraphic" stdDeviation="1.5" result="b"/>
      <feComponentTransfer in="b"><feFuncA type="linear" slope="0.5"/></feComponentTransfer>
    </filter>
  </defs>
  <rect width="32" height="32" rx="6" fill="#0A0E1A"/>
  <path d="M 4,27 C 4,18 6,5 10,5 C 14,5 14.5,21 16.5,24 C 18.5,27 19,5 23,5 C 27,5 28,18 28,27"
        fill="none" stroke="url(#fg)" stroke-width="5" stroke-linecap="round" stroke-linejoin="round" filter="url(#g)"/>
  <path d="M 4,27 C 4,18 6,5 10,5 C 14,5 14.5,21 16.5,24 C 18.5,27 19,5 23,5 C 27,5 28,18 28,27"
        fill="none" stroke="url(#fg)" stroke-width="4" stroke-linecap="round" stroke-linejoin="round"/>
</svg>
